<?xml version="1.0" standalone="no"?><!DOCTYPE svg PUBLIC "-//W3C//DTD SVG 1.1//EN" "http://www.w3.org/Graphics/SVG/1.1/DTD/svg11.dtd"><svg t="1762000896964" class="icon" viewBox="0 0 1024 1024" version="1.1" xmlns="http://www.w3.org/2000/svg" p-id="5473" xmlns:xlink="http://www.w3.org/1999/xlink" width="200" height="200"><path d="M238.92992 375.45984C163.57376 375.45984 102.4 436.60288 102.4 512c0 75.32544 61.17376 136.52992 136.52992 136.52992h546.14016C860.42624 648.52992 921.6 587.32544 921.6 512c0-75.39712-61.17376-136.54016-136.52992-136.54016a135.99744 135.99744 0 0 0-96.54272 39.99744l-48.30208-48.26112c36.56704-36.59776 84.60288-57.3952 135.99744-59.5968C746.00448 189.65504 639.30368 102.4 512 102.4c-127.3344 0-234.00448 87.25504-264.20224 205.12768 108.93312 4.66944 196.00384 94.26944 196.00384 204.40064h-68.27008c0-75.39712-61.20448-136.52992-136.52992-136.52992l-0.07168 0.06144zM701.9008 699.72992l-38.4 153.6H614.4v-153.6h-68.27008v153.6h-68.25984v-153.6H409.6v153.6h-49.1008l-38.4-153.6h-70.36928L307.2 921.6h409.6l55.47008-221.87008z" p-id="5474"></path></svg>