<?xml version="1.0" standalone="no"?><!DOCTYPE svg PUBLIC "-//W3C//DTD SVG 1.1//EN" "http://www.w3.org/Graphics/SVG/1.1/DTD/svg11.dtd"><svg t="1762001204740" class="icon" viewBox="0 0 1024 1024" version="1.1" xmlns="http://www.w3.org/2000/svg" p-id="24878" xmlns:xlink="http://www.w3.org/1999/xlink" width="200" height="200"><path d="M928 128H640a128 128 0 1 0-256 0H96a32 32 0 0 0-32 32v832a32 32 0 0 0 32 32h832a32 32 0 0 0 32-32v-832a32 32 0 0 0-32-32zM512 64a64 64 0 1 1 0 128 64 64 0 0 1 0-128z m384 896H128V192h128v96a32 32 0 0 0 32 32h448a32 32 0 0 0 32-32V192h128v768z" fill="#ffffff" p-id="24879"></path><path d="M448 858.496L242.752 621.248l58.496-58.496L448 677.504l274.752-242.752 58.496 58.496z" fill="#ffffff" p-id="24880"></path></svg>