<?xml version="1.0" standalone="no"?><!DOCTYPE svg PUBLIC "-//W3C//DTD SVG 1.1//EN" "http://www.w3.org/Graphics/SVG/1.1/DTD/svg11.dtd"><svg t="1762001295820" class="icon" viewBox="0 0 1024 1024" version="1.1" xmlns="http://www.w3.org/2000/svg" p-id="28974" xmlns:xlink="http://www.w3.org/1999/xlink" width="200" height="200"><path d="M383.936 841.152q0-22.848-16-38.848t-38.848-16-38.848 16-16 38.848 16 38.848 38.848 16 38.848-16 16-38.848z m0-658.304q0-22.848-16-38.848T329.088 128t-38.848 16-16 38.848 16 38.848 38.848 16 38.848-16 16-38.848zM749.632 256q0-22.848-16-38.848t-38.848-16-38.848 16-16 38.848 16 38.848 38.848 16 38.848-16 16-38.848z m54.88 0q0 29.728-14.848 55.136t-40 39.712q-1.152 164-129.152 236.576-38.848 21.728-116 46.272-73.152 22.848-96.864 40.576t-23.712 57.152v14.848q25.152 14.272 40 39.712t14.848 55.136q0 45.728-32 77.728t-77.728 32-77.728-32-32-77.728q0-29.728 14.848-55.136t40-39.712V277.696Q249.024 263.424 234.176 237.984t-14.848-55.136q0-45.728 32-77.728t77.728-32 77.728 32 32 77.728q0 29.728-14.848 55.136t-40 39.712v284q30.848-14.848 88-32.576 31.424-9.728 49.984-16.864t40.288-17.728 33.728-22.56 23.136-29.152 16-39.712 4.864-52.288q-25.152-14.272-40-39.712t-14.848-55.136q0-45.728 32-77.728t77.728-32 77.728 32 32 77.728z" p-id="28975" fill="#ffffff"></path></svg>