<?xml version="1.0" standalone="no"?><!DOCTYPE svg PUBLIC "-//W3C//DTD SVG 1.1//EN" "http://www.w3.org/Graphics/SVG/1.1/DTD/svg11.dtd"><svg t="1762001358714" class="icon" viewBox="0 0 1366 1024" version="1.1" xmlns="http://www.w3.org/2000/svg" p-id="33122" xmlns:xlink="http://www.w3.org/1999/xlink" width="266.796875" height="200"><path d="M410.666667 14.666667l37.333333 0 0 73.333333-37.333333 0 0-73.333333Z" p-id="33123" fill="#ffffff"></path><path d="M448 88l8 0 0 64-8 0 0-64Z" p-id="33124" fill="#ffffff"></path><path d="M401.333333 88l9.333333 0 0 64-9.333333 0 0-64Z" p-id="33125" fill="#ffffff"></path><path d="M410.666667 88l37.333333 0 0 64-37.333333 0 0-64Z" p-id="33126" fill="#ffffff"></path><path d="M510.666667 14.666667l37.333333 0 0 73.333333-37.333333 0 0-73.333333Z" p-id="33127" fill="#ffffff"></path><path d="M501.333333 88l9.333333 0 0 64-9.333333 0 0-64Z" p-id="33128" fill="#ffffff"></path><path d="M548 88l9.333333 0 0 64-9.333333 0 0-64Z" p-id="33129" fill="#ffffff"></path><path d="M510.666667 88l37.333333 0 0 64-37.333333 0 0-64Z" p-id="33130" fill="#ffffff"></path><path d="M612 14.666667l37.333333 0 0 73.333333-37.333333 0 0-73.333333Z" p-id="33131" fill="#ffffff"></path><path d="M649.333333 88l9.333333 0 0 64-9.333333 0 0-64Z" p-id="33132" fill="#ffffff"></path><path d="M602.666667 88l9.333333 0 0 64-9.333333 0 0-64Z" p-id="33133" fill="#ffffff"></path><path d="M612 88l37.333333 0 0 64-37.333333 0 0-64Z" p-id="33134" fill="#ffffff"></path><path d="M712 14.666667l37.333333 0 0 73.333333-37.333333 0 0-73.333333Z" p-id="33135" fill="#ffffff"></path><path d="M749.333333 88l9.333333 0 0 64-9.333333 0 0-64Z" p-id="33136" fill="#ffffff"></path><path d="M702.666667 88l9.333333 0 0 64-9.333333 0 0-64Z" p-id="33137" fill="#ffffff"></path><path d="M712 88l37.333333 0 0 64-37.333333 0 0-64Z" p-id="33138" fill="#ffffff"></path><path d="M813.333333 14.666667l37.333333 0 0 73.333333-37.333333 0 0-73.333333Z" p-id="33139" fill="#ffffff"></path><path d="M850.666667 88l9.333333 0 0 64-9.333333 0 0-64Z" p-id="33140" fill="#ffffff"></path><path d="M804 88l9.333333 0 0 64-9.333333 0 0-64Z" p-id="33141" fill="#ffffff"></path><path d="M813.333333 88l37.333333 0 0 64-37.333333 0 0-64Z" p-id="33142" fill="#ffffff"></path><path d="M913.333333 14.666667l37.333333 0 0 73.333333-37.333333 0 0-73.333333Z" p-id="33143" fill="#ffffff"></path><path d="M950.666667 88l9.333333 0 0 64-9.333333 0 0-64Z" p-id="33144" fill="#ffffff"></path><path d="M905.333333 88l8 0 0 64-8 0 0-64Z" p-id="33145" fill="#ffffff"></path><path d="M913.333333 88l37.333333 0 0 64-37.333333 0 0-64Z" p-id="33146" fill="#ffffff"></path><path d="M905.333333 930.666667l37.333333 0 0 73.333333-37.333333 0 0-73.333333Z" p-id="33147" fill="#ffffff"></path><path d="M896 866.666667l9.333333 0 0 64-9.333333 0 0-64Z" p-id="33148" fill="#ffffff"></path><path d="M942.666667 866.666667l8 0 0 64-8 0 0-64Z" p-id="33149" fill="#ffffff"></path><path d="M905.333333 866.666667l37.333333 0 0 64-37.333333 0 0-64Z" p-id="33150" fill="#ffffff"></path><path d="M804 930.666667l37.333333 0 0 73.333333-37.333333 0 0-73.333333Z" p-id="33151" fill="#ffffff"></path><path d="M794.666667 866.666667l9.333333 0 0 64-9.333333 0 0-64Z" p-id="33152" fill="#ffffff"></path><path d="M841.333333 866.666667l9.333333 0 0 64-9.333333 0 0-64Z" p-id="33153" fill="#ffffff"></path><path d="M804 866.666667l37.333333 0 0 64-37.333333 0 0-64Z" p-id="33154" fill="#ffffff"></path><path d="M702.666667 930.666667l38.666667 0 0 73.333333-38.666667 0 0-73.333333Z" p-id="33155" fill="#ffffff"></path><path d="M694.666667 866.666667l8 0 0 64-8 0 0-64Z" p-id="33156" fill="#ffffff"></path><path d="M741.333333 866.666667l8 0 0 64-8 0 0-64Z" p-id="33157" fill="#ffffff"></path><path d="M702.666667 866.666667l38.666667 0 0 64-38.666667 0 0-64Z" p-id="33158" fill="#ffffff"></path><path d="M602.666667 930.666667l37.333333 0 0 73.333333-37.333333 0 0-73.333333Z" p-id="33159" fill="#ffffff"></path><path d="M593.333333 866.666667l9.333333 0 0 64-9.333333 0 0-64Z" p-id="33160" fill="#ffffff"></path><path d="M640 866.666667l9.333333 0 0 64-9.333333 0 0-64Z" p-id="33161" fill="#ffffff"></path><path d="M602.666667 866.666667l37.333333 0 0 64-37.333333 0 0-64Z" p-id="33162" fill="#ffffff"></path><path d="M501.333333 930.666667l37.333333 0 0 73.333333-37.333333 0 0-73.333333Z" p-id="33163" fill="#ffffff"></path><path d="M493.333333 866.666667l8 0 0 64-8 0 0-64Z" p-id="33164" fill="#ffffff"></path><path d="M538.666667 866.666667l9.333333 0 0 64-9.333333 0 0-64Z" p-id="33165" fill="#ffffff"></path><path d="M501.333333 866.666667l37.333333 0 0 64-37.333333 0 0-64Z" p-id="33166" fill="#ffffff"></path><path d="M401.333333 930.666667l37.333333 0 0 73.333333-37.333333 0 0-73.333333Z" p-id="33167" fill="#ffffff"></path><path d="M392 866.666667l9.333333 0 0 64-9.333333 0 0-64Z" p-id="33168" fill="#ffffff"></path><path d="M438.666667 866.666667l9.333333 0 0 64-9.333333 0 0-64Z" p-id="33169" fill="#ffffff"></path><path d="M401.333333 866.666667l37.333333 0 0 64-37.333333 0 0-64Z" p-id="33170" fill="#ffffff"></path><path d="M1106.666667 242.666667l73.333333 0 0 37.333333-73.333333 0 0-37.333333Z" p-id="33171" fill="#ffffff"></path><path d="M1042.666667 280l64 0 0 9.333333-64 0 0-9.333333Z" p-id="33172" fill="#ffffff"></path><path d="M1042.666667 234.666667l64 0 0 8-64 0 0-8Z" p-id="33173" fill="#ffffff"></path><path d="M1042.666667 242.666667l64 0 0 37.333333-64 0 0-37.333333Z" p-id="33174" fill="#ffffff"></path><path d="M1106.666667 344l73.333333 0 0 37.333333-73.333333 0 0-37.333333Z" p-id="33175" fill="#ffffff"></path><path d="M1042.666667 334.666667l64 0 0 9.333333-64 0 0-9.333333Z" p-id="33176" fill="#ffffff"></path><path d="M1042.666667 381.333333l64 0 0 9.333333-64 0 0-9.333333Z" p-id="33177" fill="#ffffff"></path><path d="M1042.666667 344l64 0 0 37.333333-64 0 0-37.333333Z" p-id="33178" fill="#ffffff"></path><path d="M1106.666667 445.333333l73.333333 0 0 37.333333-73.333333 0 0-37.333333Z" p-id="33179" fill="#ffffff"></path><path d="M1042.666667 482.666667l64 0 0 8-64 0 0-8Z" p-id="33180" fill="#ffffff"></path><path d="M1042.666667 436l64 0 0 9.333333-64 0 0-9.333333Z" p-id="33181" fill="#ffffff"></path><path d="M1042.666667 445.333333l64 0 0 37.333333-64 0 0-37.333333Z" p-id="33182" fill="#ffffff"></path><path d="M1106.666667 545.333333l73.333333 0 0 37.333333-73.333333 0 0-37.333333Z" p-id="33183" fill="#ffffff"></path><path d="M1042.666667 536l64 0 0 9.333333-64 0 0-9.333333Z" p-id="33184" fill="#ffffff"></path><path d="M1042.666667 582.666667l64 0 0 9.333333-64 0 0-9.333333Z" p-id="33185" fill="#ffffff"></path><path d="M1042.666667 545.333333l64 0 0 37.333333-64 0 0-37.333333Z" p-id="33186" fill="#ffffff"></path><path d="M1106.666667 646.666667l73.333333 0 0 37.333333-73.333333 0 0-37.333333Z" p-id="33187" fill="#ffffff"></path><path d="M1042.666667 684l64 0 0 9.333333-64 0 0-9.333333Z" p-id="33188" fill="#ffffff"></path><path d="M1042.666667 637.333333l64 0 0 9.333333-64 0 0-9.333333Z" p-id="33189" fill="#ffffff"></path><path d="M1042.666667 646.666667l64 0 0 37.333333-64 0 0-37.333333Z" p-id="33190" fill="#ffffff"></path><path d="M1106.666667 746.666667l73.333333 0 0 37.333333-73.333333 0 0-37.333333Z" p-id="33191" fill="#ffffff"></path><path d="M1042.666667 784l64 0 0 9.333333-64 0 0-9.333333Z" p-id="33192" fill="#ffffff"></path><path d="M1042.666667 738.666667l64 0 0 8-64 0 0-8Z" p-id="33193" fill="#ffffff"></path><path d="M1042.666667 746.666667l64 0 0 37.333333-64 0 0-37.333333Z" p-id="33194" fill="#ffffff"></path><path d="M181.333333 746.666667l73.333333 0 0 37.333333-73.333333 0 0-37.333333Z" p-id="33195" fill="#ffffff"></path><path d="M254.666667 784l64 0 0 9.333333-64 0 0-9.333333Z" p-id="33196" fill="#ffffff"></path><path d="M254.666667 738.666667l64 0 0 8-64 0 0-8Z" p-id="33197" fill="#ffffff"></path><path d="M254.666667 746.666667l64 0 0 37.333333-64 0 0-37.333333Z" p-id="33198" fill="#ffffff"></path><path d="M181.333333 646.666667l73.333333 0 0 37.333333-73.333333 0 0-37.333333Z" p-id="33199" fill="#ffffff"></path><path d="M254.666667 637.333333l64 0 0 9.333333-64 0 0-9.333333Z" p-id="33200" fill="#ffffff"></path><path d="M254.666667 684l64 0 0 9.333333-64 0 0-9.333333Z" p-id="33201" fill="#ffffff"></path><path d="M254.666667 646.666667l64 0 0 37.333333-64 0 0-37.333333Z" p-id="33202" fill="#ffffff"></path><path d="M181.333333 545.333333l73.333333 0 0 37.333333-73.333333 0 0-37.333333Z" p-id="33203" fill="#ffffff"></path><path d="M254.666667 582.666667l64 0 0 9.333333-64 0 0-9.333333Z" p-id="33204" fill="#ffffff"></path><path d="M254.666667 536l64 0 0 9.333333-64 0 0-9.333333Z" p-id="33205" fill="#ffffff"></path><path d="M254.666667 545.333333l64 0 0 37.333333-64 0 0-37.333333Z" p-id="33206" fill="#ffffff"></path><path d="M181.333333 445.333333l73.333333 0 0 37.333333-73.333333 0 0-37.333333Z" p-id="33207" fill="#ffffff"></path><path d="M254.666667 436l64 0 0 9.333333-64 0 0-9.333333Z" p-id="33208" fill="#ffffff"></path><path d="M254.666667 482.666667l64 0 0 8-64 0 0-8Z" p-id="33209" fill="#ffffff"></path><path d="M254.666667 445.333333l64 0 0 37.333333-64 0 0-37.333333Z" p-id="33210" fill="#ffffff"></path><path d="M181.333333 344l73.333333 0 0 37.333333-73.333333 0 0-37.333333Z" p-id="33211" fill="#ffffff"></path><path d="M254.666667 334.666667l64 0 0 9.333333-64 0 0-9.333333Z" p-id="33212" fill="#ffffff"></path><path d="M254.666667 381.333333l64 0 0 9.333333-64 0 0-9.333333Z" p-id="33213" fill="#ffffff"></path><path d="M254.666667 344l64 0 0 37.333333-64 0 0-37.333333Z" p-id="33214" fill="#ffffff"></path><path d="M181.333333 242.666667l73.333333 0 0 37.333333-73.333333 0 0-37.333333Z" p-id="33215" fill="#ffffff"></path><path d="M254.666667 280l64 0 0 9.333333-64 0 0-9.333333Z" p-id="33216" fill="#ffffff"></path><path d="M254.666667 234.666667l64 0 0 8-64 0 0-8Z" p-id="33217" fill="#ffffff"></path><path d="M254.666667 242.666667l64 0 0 37.333333-64 0 0-37.333333Z" p-id="33218" fill="#ffffff"></path><path d="M708.013333 428.413333c-4.072-1.074667-11.592-1.746667-22.564-1.746667L640 426.666667l0 64 45.946667 0c15.629333 0 26.728-2.110667 33.288-7.932 6.568-5.816 9.852-13.605333 9.852-24.165333 0-7.645333-1.932-14.056-5.798667-19.501333S714.330667 430.157333 708.013333 428.413333z" p-id="33219" fill="#ffffff"></path><path d="M1016 244.142667C1016 208.718667 987.282667 180 951.857333 180L410.809333 180C375.385333 180 346.666667 208.718667 346.666667 244.142667l0 531.713333C346.666667 811.282667 375.385333 840 410.809333 840l541.046667 0C987.282667 840 1016 811.282667 1016 775.857333L1016 244.142667zM557.334667 575.614667c-13.176 10.433333-29.278667 15.641333-48.317333 15.641333-19.7 0-35.722667-4.009333-48.066667-12.028-12.344-8.028-21.736-19.641333-28.178667-34.853333-6.442667-15.208-9.66-31.544-9.66-49.002667 0-19.033333 3.633333-35.637333 10.908-49.810667 7.270667-14.169333 17.618667-24.934667 31.046667-32.290667 13.422667-7.36 28.196-11.037333 44.326667-11.037333 18.285333 0 33.664 4.657333 46.133333 13.964 12.469333 9.310667 21.154667 22.401333 26.058667 39.278667l-23.812 5.610667c-4.241333-13.297333-10.393333-22.984-18.456-29.052-8.062667-6.066667-18.201333-9.104-30.425333-9.104-14.044 0-25.788 3.369333-35.221333 10.102667-9.436 6.729333-16.066667 15.772-19.888 27.118667-3.825333 11.346667-5.736 23.046667-5.736 35.1 0 15.542667 2.264 29.113333 6.796 40.706667 4.528 11.601333 11.574667 20.262667 21.132 26 9.561333 5.736 19.910667 8.598667 31.046667 8.598667 13.548 0 25.02-3.902667 34.416-11.713333 9.390667-7.810667 15.749333-19.409333 19.078667-34.792l24.186667 6.112C579.634667 550.030667 570.512 565.181333 557.334667 575.614667zM739.190667 495.436C729.292 506.201333 711.421333 509.333333 685.574667 509.333333L640 509.333333l0 82.666667-28 0L612 408l71.454667 0c12.134667 0 21.4-0.742667 27.806667 0.421333 8.974667 1.494667 16.5 3.682667 22.568 7.88 6.066667 4.196 10.952 9.750667 14.648 17.310667 3.694667 7.566667 5.548 14.588 5.548 23.648C754.026667 472.804 749.078667 484.672 739.190667 495.436zM933.333333 510.962667c0 18.370667-4.257333 32.957333-8.428 43.766667-4.150667 10.801333-12.742667 19.597333-23.597333 26.370667-10.845333 6.773333-25.624 10.156-43.242667 10.156-17.129333 0-31.409333-2.945333-42.3-8.850667-10.888-5.897333-18.725333-14.442667-23.378667-25.62-4.662667-11.185333-7.053333-26.456-7.053333-45.824L785.333333 408l28 0 0 102.836c0 15.878667-0.508 27.578667 2.445333 35.096 2.950667 7.526667 7.046667 13.324 14.232 17.396 7.186667 4.072 15.486667 6.112 25.876 6.112 17.789333 0 30.505333-4.036 38.066667-12.097333 7.561333-8.064 11.38-23.562667 11.38-46.505333L905.333333 408l28 0L933.333333 510.962667z" p-id="33220" fill="#ffffff"></path></svg>