<?xml version="1.0" standalone="no"?><!DOCTYPE svg PUBLIC "-//W3C//DTD SVG 1.1//EN" "http://www.w3.org/Graphics/SVG/1.1/DTD/svg11.dtd"><svg t="1762001421226" class="icon" viewBox="0 0 1024 1024" version="1.1" xmlns="http://www.w3.org/2000/svg" p-id="36728" xmlns:xlink="http://www.w3.org/1999/xlink" width="200" height="200"><path d="M512 144A437.44 437.44 0 0 0 80 585.6a448 448 0 0 0 96 276.16 48.32 48.32 0 0 0 37.76 18.24h597.76a51.2 51.2 0 0 0 39.04-18.56 448 448 0 0 0 93.44-275.84A437.44 437.44 0 0 0 512 144z m-32 64h64v150.4h-64zM305.92 674.88H158.08v-64h147.84z m32-198.4l-121.92-83.84 35.84-52.8 123.52 83.52z m170.56 325.44A114.88 114.88 0 0 1 480 576v-77.12a32 32 0 0 1 64 0v79.68a114.56 114.56 0 0 1-34.56 224z m141.44-378.56l123.52-83.52 35.84 52.8-123.52 83.84z m69.44 251.52v-64h147.84v64z" p-id="36729" fill="#ffffff"></path></svg>