<?xml version="1.0" standalone="no"?><!DOCTYPE svg PUBLIC "-//W3C//DTD SVG 1.1//EN" "http://www.w3.org/Graphics/SVG/1.1/DTD/svg11.dtd"><svg t="1762001488901" class="icon" viewBox="0 0 1024 1024" version="1.1" xmlns="http://www.w3.org/2000/svg" p-id="43820" xmlns:xlink="http://www.w3.org/1999/xlink" width="200" height="200"><path d="M443.008073 460.233006q130.454668 0 243.822694-23.663155t178.887309-69.883137v93.577024q0 37.983974-56.699379 70.436301t-154.117824 51.475046-211.8928 18.991987-211.8928-18.991987-154.117824-51.475046T20.29807 460.263738v-93.577024q65.488551 46.219981 178.887309 69.883137t243.822694 23.663155z m0 422.679272q130.454668 0 243.822694-23.663156t178.887309-69.883137v93.577024q0 37.983974-56.699379 70.436301t-154.117824 51.475046-211.8928 18.991987-211.8928-18.991987-154.117824-51.475046T20.29807 882.943009v-93.577024q65.488551 46.219981 178.887309 69.883137t243.822694 23.663156z m0-211.339636q130.454668 0 243.822694-23.663155t178.887309-69.883137v93.577023q0 37.983974-56.699379 70.436302t-154.117824 51.475045-211.8928 18.991987-211.8928-18.991987-154.117824-51.475045T20.29807 671.603373v-93.577023q65.488551 46.219981 178.887309 69.883137t243.822694 23.663155z m0-634.049638q114.474356 0 211.8928 18.991987t154.117824 51.475045 56.699379 70.436302v70.436301q0 37.983974-56.699379 70.436302t-154.117824 51.475045-211.8928 18.991987-211.8928-18.991987-154.117824-51.475045T20.29807 248.862639V178.426338Q20.29807 140.442364 76.997449 107.990036T231.115273 56.514991t211.8928-18.991987z" p-id="43821" fill="#ffffff"></path></svg>