<?xml version="1.0" standalone="no"?><!DOCTYPE svg PUBLIC "-//W3C//DTD SVG 1.1//EN" "http://www.w3.org/Graphics/SVG/1.1/DTD/svg11.dtd"><svg t="1762001559272" class="icon" viewBox="0 0 1024 1024" version="1.1" xmlns="http://www.w3.org/2000/svg" p-id="46754" xmlns:xlink="http://www.w3.org/1999/xlink" width="200" height="200"><path d="M965.7856 1011.2H58.368a45.4144 45.4144 0 0 1-45.4656-45.4656V108.6464A96 96 0 0 1 108.6976 12.8h504.0128a96 96 0 0 1 95.8464 95.8464v67.7376l236.8 76.544h0.512a96.1536 96.1536 0 0 1 65.2288 94.464v618.0864a45.4144 45.4144 0 0 1-45.312 45.7216z m-257.024-90.88h211.6096V344.2688a4.9664 4.9664 0 0 0-3.2768-4.9152L708.7616 271.872v648.4992z m-201.728 0h110.848V108.6464a5.0176 5.0176 0 0 0-5.12-4.9664H108.6464a5.0176 5.0176 0 0 0-4.9664 4.9664v811.6736H214.528v-257.024a45.4144 45.4144 0 0 1 45.4656-45.4656h201.728a45.4144 45.4144 0 0 1 45.4144 45.4144l-0.0512 257.024z m-201.6256 0h110.7968v-211.6096H305.408v211.6096z m156.2112-413.2864H259.9936a45.4656 45.4656 0 0 1 0-90.88h201.728a45.4656 45.4656 0 1 1-0.1024 90.88z m0-201.728H259.9936a45.4656 45.4656 0 1 1 0-90.88h201.728a45.4656 45.4656 0 1 1-0.1024 90.9312z" p-id="46755" fill="#ffffff"></path><path d="M259.9936 305.3568h201.6256a45.568 45.568 0 0 0 45.5168-45.4656 45.4656 45.4656 0 0 0-45.4656-45.4656h-201.728a45.4656 45.4656 0 1 0 0 90.9312zM259.9936 507.0336h201.6256a45.568 45.568 0 0 0 45.5168-45.4656 45.4656 45.4656 0 0 0-45.4656-45.4144h-201.728a45.4656 45.4656 0 1 0 0 90.88z" p-id="46756" fill="#ffffff"></path></svg>