<?xml version="1.0" standalone="no"?><!DOCTYPE svg PUBLIC "-//W3C//DTD SVG 1.1//EN" "http://www.w3.org/Graphics/SVG/1.1/DTD/svg11.dtd"><svg t="1762001602274" class="icon" viewBox="0 0 1024 1024" version="1.1" xmlns="http://www.w3.org/2000/svg" p-id="49479" xmlns:xlink="http://www.w3.org/1999/xlink" width="200" height="200"><path d="M409.6 259.2c-51.2 0-118.4 44.8-118.4 102.4 0 32 12.8 48 35.2 67.2l160-118.4c-16-32-41.6-51.2-76.8-51.2z" fill="#ffffff" p-id="49480"></path><path d="M512 0C230.4 0 0 230.4 0 512s230.4 512 512 512 512-230.4 512-512S793.6 0 512 0z m256 822.4l-76.8 9.6-92.8-128h-67.2l-76.8-121.6c-9.6 3.2-22.4 3.2-32 3.2-108.8 0-195.2-86.4-195.2-195.2C224 278.4 310.4 192 419.2 192s195.2 86.4 195.2 195.2c0 38.4-12.8 73.6-32 105.6l182.4 259.2v70.4z" fill="#ffffff" p-id="49481"></path></svg>