<?xml version="1.0" standalone="no"?><!DOCTYPE svg PUBLIC "-//W3C//DTD SVG 1.1//EN" "http://www.w3.org/Graphics/SVG/1.1/DTD/svg11.dtd"><svg t="1763032208144" class="icon" viewBox="0 0 1024 1024" version="1.1" xmlns="http://www.w3.org/2000/svg" p-id="4890" xmlns:xlink="http://www.w3.org/1999/xlink" width="200" height="200"><path d="M581.95968 838.32832a20.48 20.48 0 1 0 0 40.96h277.0944a20.48 20.48 0 0 0 21.01248-20.48V581.2224a20.48 20.48 0 1 0-40.96 0v228.22912L593.92 564.224a20.48 20.48 0 1 0-28.95872 28.95872l245.1456 245.1456h-228.1472zM213.8112 185.01632h228.22912a20.48 20.48 0 1 0 0-40.96H164.41344a20.56192 20.56192 0 0 0-20.48 21.504v276.64384a20.48 20.48 0 1 0 40.96 0v-228.1472l245.10464 245.10464a20.48 20.48 0 1 0 28.99968-28.95872L213.8112 185.05728z" fill="#dbdbdb" p-id="4891"></path></svg>