<?xml version="1.0" standalone="no"?><!DOCTYPE svg PUBLIC "-//W3C//DTD SVG 1.1//EN" "http://www.w3.org/Graphics/SVG/1.1/DTD/svg11.dtd"><svg t="1763178979945" class="icon" viewBox="0 0 1024 1024" version="1.1" xmlns="http://www.w3.org/2000/svg" p-id="8083" xmlns:xlink="http://www.w3.org/1999/xlink" width="200" height="200"><path d="M820.81 739.44v0.917c-0.446 65.435-26.083 124.691-67.841 167.925l-1.983 1.142c-41.535 42.555-98.112 68.634-160.649 68.634-63.645 0-121.312-26.77-163.083-69.779l-1.536-1.832c-33.597-35.916-56.792-82.133-63.641-133.149-59.439-7.55-113.359-36.147-154.248-78.471-47.505-49.646-77.341-117.827-77.341-193.096v-45.756c-94.799-16.008-85.514-167.46 12.599-167.46h17.681c1.317 0 2.425-0.462 3.978-0.462h38.883V99.313c0-46.211 69.383-46.211 69.383 0v188.744h242.85V99.313c0-46.211 69.172-46.211 69.172 0v188.744h38.669c1.544 0 2.87 0.462 4.201 0.462h17.68c98.778 0 107.387 151.683 12.592 167.464v45.756c0 75.27-29.838 143.449-77.343 193.096-39.111 40.95-91.032 68.402-148.939 77.546 6.407 32.27 21.659 61.086 42.428 83.736l1.554 1.607c29.378 30.426 69.604 48.73 114.462 48.73 43.309 0 83.312-18.072 112.261-47.355l1.764-1.375c28.949-30.196 46.625-71.837 47.071-117.358v-2.289c0.219-49.192 19.886-93.571 51.26-125.602 31.159-32.939 74.909-53.075 123.084-53.075 44.643 0 44.643 71.834 0 71.834-29.379 0-55.684 11.665-74.472 31.57-18.775 19.452-30.485 45.755-30.485 75.958v0.678h-0.011zM645.578 385.521c15.903 0 15.903-25.396 0-25.396H143.086c-15.697 0-15.916 25.396 0 25.396h502.492z m-56.13 42.778H199.213v73.437c0 56.057 22.096 106.155 57.457 142.766 35.356 36.6 83.964 59.486 137.666 59.486h0.446c53.465 0 101.871-22.883 137.219-59.486 35.356-36.606 57.456-86.705 57.456-142.766v-73.437h-0.009z m0 0" p-id="8084"></path></svg>