<?xml version="1.0" standalone="no"?><!DOCTYPE svg PUBLIC "-//W3C//DTD SVG 1.1//EN" "http://www.w3.org/Graphics/SVG/1.1/DTD/svg11.dtd"><svg t="1763179023481" class="icon" viewBox="0 0 1066 1024" version="1.1" xmlns="http://www.w3.org/2000/svg" p-id="10060" xmlns:xlink="http://www.w3.org/1999/xlink" width="208.203125" height="200"><path d="M617.770667 421.504A128 128 0 1 1 708.266667 640h-128v-128a128 128 0 0 1 37.504-90.496zM708.266667 469.333333a42.666667 42.666667 0 0 0-42.666667 42.666667v42.666667h42.666667a42.666667 42.666667 0 0 0 0-85.333334z" fill="#313438" p-id="10061"></path><path d="M447.104 592.170667A128 128 0 0 1 537.6 554.666667h128v128a128 128 0 1 1-218.496-90.496zM537.6 640a42.666667 42.666667 0 1 0 42.666667 42.666667v-42.666667h-42.666667z" fill="#313438" p-id="10062"></path><path d="M964.266667 810.666667a128 128 0 0 1-128 128h-426.666667a128 128 0 0 1-128-128V341.333333a85.333333 85.333333 0 0 1 85.333333-85.333333h469.333334a128 128 0 0 1 128 128v426.666667z m-128 42.666666a42.666667 42.666667 0 0 0 42.666666-42.666666V384a42.666667 42.666667 0 0 0-42.666666-42.666667h-469.333334v469.333334a42.666667 42.666667 0 0 0 42.666667 42.666666h426.666667z" fill="#313438" p-id="10063"></path><path d="M196.266667 213.333333v576a21.333333 21.333333 0 0 1-21.333334 21.333334h-42.666666a21.333333 21.333333 0 0 1-21.333334-21.333334V213.333333a128 128 0 0 1 128-128h533.333334a21.333333 21.333333 0 0 1 21.333333 21.333334v42.666666a21.333333 21.333333 0 0 1-21.333333 21.333334H238.933333a42.666667 42.666667 0 0 0-42.666666 42.666666z" fill="#313438" p-id="10064"></path></svg>