<?xml version="1.0" standalone="no"?><!DOCTYPE svg PUBLIC "-//W3C//DTD SVG 1.1//EN" "http://www.w3.org/Graphics/SVG/1.1/DTD/svg11.dtd"><svg t="1761987045508" class="icon" viewBox="0 0 1024 1024" version="1.1" xmlns="http://www.w3.org/2000/svg" p-id="6987" xmlns:xlink="http://www.w3.org/1999/xlink" width="200" height="200"><path d="M965.7856 1011.2H58.368a45.4144 45.4144 0 0 1-45.4656-45.4656V108.6464A96 96 0 0 1 108.6976 12.8h504.0128a96 96 0 0 1 95.8464 95.8464v67.7376l236.8 76.544h0.512a96.1536 96.1536 0 0 1 65.2288 94.464v618.0864a45.4144 45.4144 0 0 1-45.312 45.7216z m-257.024-90.88h211.6096V344.2688a4.9664 4.9664 0 0 0-3.2768-4.9152L708.7616 271.872v648.4992z m-201.728 0h110.848V108.6464a5.0176 5.0176 0 0 0-5.12-4.9664H108.6464a5.0176 5.0176 0 0 0-4.9664 4.9664v811.6736H214.528v-257.024a45.4144 45.4144 0 0 1 45.4656-45.4656h201.728a45.4144 45.4144 0 0 1 45.4144 45.4144l-0.0512 257.024z m-201.6256 0h110.7968v-211.6096H305.408v211.6096z" p-id="6988"></path><path d="M215.0912 213.1968m44.3904 0l203.3152 0q44.3904 0 44.3904 44.3904l0 1.8944q0 44.3904-44.3904 44.3904l-203.3152 0q-44.3904 0-44.3904-44.3904l0-1.8944q0-44.3904 44.3904-44.3904Z" p-id="6989"></path><path d="M215.0912 414.5664m44.3904 0l203.3152 0q44.3904 0 44.3904 44.3904l0 2.4064q0 44.3904-44.3904 44.3904l-203.3152 0q-44.3904 0-44.3904-44.3904l0-2.4064q0-44.3904 44.3904-44.3904Z" p-id="6990"></path></svg>