<?xml version="1.0" standalone="no"?><!DOCTYPE svg PUBLIC "-//W3C//DTD SVG 1.1//EN" "http://www.w3.org/Graphics/SVG/1.1/DTD/svg11.dtd"><svg t="1762960327527" class="icon" viewBox="0 0 1024 1024" version="1.1" xmlns="http://www.w3.org/2000/svg" p-id="4829" xmlns:xlink="http://www.w3.org/1999/xlink" width="200" height="200"><path d="M60.235294 542.117647c0 132.879059 103.062588 240.941176 229.677177 240.941177v60.235294C130.048 843.294118 0 708.186353 0 542.117647s130.048-301.176471 289.912471-301.176471h254.735058L445.500235 141.793882l42.586353-42.586353L659.998118 271.058824 488.146824 442.970353l-42.646589-42.646588L544.707765 301.176471h-254.795294C163.297882 301.176471 60.235294 409.238588 60.235294 542.117647z m673.852235-301.176471v60.235295C860.702118 301.176471 963.764706 409.238588 963.764706 542.117647s-103.062588 240.941176-229.677177 240.941177h-254.795294l99.147294-99.147295-42.586353-42.586353L364.001882 813.176471l171.91153 171.911529 42.586353-42.586353L479.292235 843.294118h254.735059C893.952 843.294118 1024 708.186353 1024 542.117647s-130.048-301.176471-289.912471-301.176471z" p-id="4830" fill="#ffffff"></path></svg>