<?xml version="1.0" standalone="no"?><!DOCTYPE svg PUBLIC "-//W3C//DTD SVG 1.1//EN" "http://www.w3.org/Graphics/SVG/1.1/DTD/svg11.dtd"><svg t="1761988059679" class="icon" viewBox="0 0 1024 1024" version="1.1" xmlns="http://www.w3.org/2000/svg" p-id="7962" xmlns:xlink="http://www.w3.org/1999/xlink" width="200" height="200"><path d="M85.43713 468.963219a63.98443 63.98443 0 0 1 63.984431 63.98443c0 94.099769 47.22051 146.225752 135.433711 173.696401 44.362538 13.820637 89.450234 18.811423 134.06871 18.939391l24.69799-0.426563h298.12479l-75.416316-54.855985a63.98443 63.98443 0 0 1-17.489077-84.20351l3.369846-5.161411a63.98443 63.98443 0 0 1 84.203511-17.489077l5.16141 3.369846 234.609579 170.625148A63.98443 63.98443 0 0 1 981.219157 836.831038l-5.033442 4.052347-234.609579 170.625148a63.98443 63.98443 0 0 1-80.06585-99.687743l4.82016-3.839066L741.746762 853.125739l-303.072919 0.213282c-62.747398 1.49297-125.964015-3.967035-191.953292-24.527365C109.324651 785.984744 21.4527 689.027003 21.4527 532.947649a63.98443 63.98443 0 0 1 63.98443-63.98443zM375.329257 26.361585a63.98443 63.98443 0 0 1-9.299071 85.525856l-4.82016 3.839066L285.708398 170.625148l339.501388-0.085313 2.132814-0.042656c57.287393-1.49297 113.806974 3.924378 173.312494 24.825959 123.916514 43.509413 201.892206 141.106997 201.892206 295.522756a63.98443 63.98443 0 0 1-127.968861 0c0-96.872428-41.163317-148.401222-116.323694-174.762808-37.11097-13.052824-75.032409-17.745015-113.252442-17.830328l-21.925332 0.341251H285.708398l75.501628 54.898641a63.98443 63.98443 0 0 1 17.489077 84.203511l-3.412503 5.16141a63.98443 63.98443 0 0 1-84.20351 17.489078l-5.118755-3.369847-234.609578-170.625148a63.899118 63.899118 0 0 1-1.15172-102.673682L285.921679 12.242354a63.98443 63.98443 0 0 1 89.364921 14.076575z" fill="#000000" p-id="7963"></path></svg>