<?xml version="1.0" standalone="no"?><!DOCTYPE svg PUBLIC "-//W3C//DTD SVG 1.1//EN" "http://www.w3.org/Graphics/SVG/1.1/DTD/svg11.dtd"><svg t="1763033017612" class="icon" viewBox="0 0 1024 1024" version="1.1" xmlns="http://www.w3.org/2000/svg" p-id="7611" xmlns:xlink="http://www.w3.org/1999/xlink" width="200" height="200"><path d="M633.587062 375.652483a28.043106 28.043106 0 0 1-19.453838-7.906677 26.393512 26.393512 0 0 1-8.077325-18.941895c0-73.947339-61.831352-134.072214-137.712698-134.072215a28.043106 28.043106 0 0 1-19.567604-7.906677 26.450394 26.450394 0 0 1 0-37.940673 28.043106 28.043106 0 0 1 19.567604-7.849794c75.881347 0 137.655816-60.181758 137.655816-134.072214 0-14.789468 12.4004-26.848572 27.588045-26.848573 15.244528 0 27.588046 12.002222 27.588046 26.848573 0 73.890457 61.77447 134.072214 137.655816 134.072214 7.394734 0 14.39129 2.844128 19.567604 7.849794a26.450394 26.450394 0 0 1 0 37.940673 28.043106 28.043106 0 0 1-19.510721 7.906677c-75.938229 0-137.655816 60.181758-137.655816 134.072215 0 14.789468-12.4004 26.848572-27.644929 26.848572zM567.5464 187.826242c27.076103 15.927119 49.715365 37.997556 66.040662 64.277302a192.263082 192.263082 0 0 1 66.040663-64.277302 192.263082 192.263082 0 0 1-65.98378-64.277303c-16.38218 26.279747-39.021442 48.350183-66.097545 64.277303zM82.736268 536.516387a28.043106 28.043106 0 0 1-19.510721-7.849794 26.393512 26.393512 0 0 1-8.020442-18.998778 26.393512 26.393512 0 0 0-8.077325-18.941896 28.043106 28.043106 0 0 0-19.510721-7.849794 28.043106 28.043106 0 0 1-19.510721-7.849795 26.450394 26.450394 0 0 1 0-37.940673 28.043106 28.043106 0 0 1 19.510721-7.849794 27.24675 27.24675 0 0 0 27.588046-26.848573c0-14.789468 12.286635-26.79169 27.531163-26.79169 15.187646 0 27.531163 11.945339 27.531163 26.79169 0 14.789468 12.286635 26.848572 27.531163 26.848573 7.337851 0 14.334407 2.844128 19.510722 7.849794a26.450394 26.450394 0 0 1 0 37.940673 28.043106 28.043106 0 0 1-19.510722 7.849795 28.043106 28.043106 0 0 0-19.510721 7.849794 26.393512 26.393512 0 0 0-8.020442 18.941896c0 14.789468-12.343517 26.848572-27.531163 26.848572z m917.060771 318.656149L416.580063 287.256971a84.015554 84.015554 0 0 0-58.47528-23.4925c-22.127319 0-42.832574 8.361738-58.418398 23.4925l-32.252417 31.512943a77.929119 77.929119 0 0 0-24.118209 56.882569c0 21.615376 8.532385 41.751805 24.118209 56.882569l583.160094 567.972447a83.04855 83.04855 0 0 0 58.47528 23.492501c22.184202 0 42.889457-8.361738 58.475281-23.492501l32.252416-31.45606c7.679147-7.451616 13.765582-16.325297 17.918009-26.109099a79.06677 79.06677 0 0 0-17.918009-87.769804zM306.398528 356.596823l32.309299-31.399178a27.303633 27.303633 0 0 1 19.510721-7.792912c7.394734 0 14.334407 2.844128 19.510721 7.792912l79.2943 77.189645-71.273858 69.396734-79.294301-77.246528a26.507277 26.507277 0 0 1 0-37.940673z m654.377069 574.513942l-32.252416 31.456061a27.303633 27.303633 0 0 1-19.396956 7.736029 28.099989 28.099989 0 0 1-19.453839-7.736029L424.714271 509.78158l71.216975-69.339851 464.901234 452.785246a26.507277 26.507277 0 0 1 0 37.88379h-0.056883zM192.860921 268.371959a28.043106 28.043106 0 0 1-19.453839-7.906677 26.393512 26.393512 0 0 1-8.077324-18.941896c0-21.274081-8.64615-41.751805-24.175092-56.825686a84.129319 84.129319 0 0 0-58.418398-23.663148 28.043106 28.043106 0 0 1-19.567604-7.849795 26.450394 26.450394 0 0 1 0-37.940673 28.043106 28.043106 0 0 1 19.567604-7.849794c45.506055 0 82.59349-36.120431 82.59349-80.431952 0-14.789468 12.343517-26.848572 27.531163-26.848573 15.244528 0 27.588046 12.002222 27.588046 26.848573 0 21.274081 8.64615 41.694923 24.175091 56.768803 15.472059 15.073881 36.461726 23.606266 58.418398 23.663149 7.337851 0 14.334407 2.844128 19.510721 7.849794a26.450394 26.450394 0 0 1 0 37.940673 28.043106 28.043106 0 0 1-19.510721 7.849795c-21.956671 0.056883-42.946339 8.532385-58.418398 23.663148a79.294301 79.294301 0 0 0-24.175091 56.882569c0 14.789468-12.343517 26.734807-27.588046 26.734807z m-27.644928-134.129097c10.523275 7.679147 19.795134 16.723475 27.644928 26.905455 7.96356-10.18198 17.235418-19.226308 27.701811-26.905455a138.167759 138.167759 0 0 1-27.701811-26.905455 138.167759 138.167759 0 0 1-27.644928 26.905455z m27.644928 670.588601a27.986224 27.986224 0 0 1-19.453839-7.906677 26.393512 26.393512 0 0 1-8.077324-18.941895c0-21.274081-8.64615-41.751805-24.175092-56.825686a84.129319 84.129319 0 0 0-58.418398-23.663149 28.043106 28.043106 0 0 1-19.567604-7.849794 26.450394 26.450394 0 0 1 0-37.883791 28.043106 28.043106 0 0 1 19.567604-7.849794c45.506055 0 82.59349-36.177314 82.59349-80.488835 0-14.789468 12.343517-26.848572 27.531163-26.848572 15.244528 0 27.588046 12.059105 27.588046 26.848572 0 21.274081 8.64615 41.694923 24.175091 56.825686 15.472059 15.073881 36.461726 23.606266 58.418398 23.663149 7.337851 0 14.334407 2.844128 19.510721 7.849794a26.450394 26.450394 0 0 1 0 37.883791 28.043106 28.043106 0 0 1-19.510721 7.849794c-21.956671 0.113765-42.946339 8.589268-58.418398 23.663149a79.294301 79.294301 0 0 0-24.175091 56.882568c0 14.789468-12.343517 26.734807-27.588046 26.734808z m-27.644928-134.129097c10.523275 7.679147 19.795134 16.723475 27.644928 26.905455 7.96356-10.18198 17.235418-19.226308 27.701811-26.905455a138.224642 138.224642 0 0 1-27.701811-26.905455c-7.849794 10.18198-17.178536 19.226308-27.644928 26.905455z" p-id="7612" fill="#ffffff"></path></svg>