<?xml version="1.0" standalone="no"?><!DOCTYPE svg PUBLIC "-//W3C//DTD SVG 1.1//EN" "http://www.w3.org/Graphics/SVG/1.1/DTD/svg11.dtd"><svg t="1761986889089" class="icon" viewBox="0 0 1280 1024" version="1.1" xmlns="http://www.w3.org/2000/svg" p-id="4910" xmlns:xlink="http://www.w3.org/1999/xlink" width="250" height="200"><path d="M640 0c35.4 0 64 28.6 64 64v128h240c79.6 0 144 64.4 144 144v544c0 79.6-64.4 144-144 144H336c-79.6 0-144-64.4-144-144V336c0-79.6 64.4-144 144-144h240V64c0-35.4 28.6-64 64-64zM416 768c-17.6 0-32 14.4-32 32s14.4 32 32 32h64c17.6 0 32-14.4 32-32s-14.4-32-32-32h-64z m192 0c-17.6 0-32 14.4-32 32s14.4 32 32 32h64c17.6 0 32-14.4 32-32s-14.4-32-32-32h-64z m192 0c-17.6 0-32 14.4-32 32s14.4 32 32 32h64c17.6 0 32-14.4 32-32s-14.4-32-32-32h-64zM528 512a80 80 0 1 0-160 0 80 80 0 1 0 160 0z m304 80a80 80 0 1 0 0-160 80 80 0 1 0 0 160zM96 448h32v384H96c-53 0-96-43-96-96v-192c0-53 43-96 96-96z m1088 0c53 0 96 43 96 96v192c0 53-43 96-96 96h-32V448h32z" p-id="4911" fill="#2c2c2c"></path></svg>