<?xml version="1.0" standalone="no"?><!DOCTYPE svg PUBLIC "-//W3C//DTD SVG 1.1//EN" "http://www.w3.org/Graphics/SVG/1.1/DTD/svg11.dtd"><svg t="1763032293925" class="icon" viewBox="0 0 1024 1024" version="1.1" xmlns="http://www.w3.org/2000/svg" p-id="6196" xmlns:xlink="http://www.w3.org/1999/xlink" width="200" height="200"><path d="M378.128348 150.90105c17.725624 7.550988 29.308071 24.892663 29.436053 44.15408v155.435162a47.993566 47.993566 0 0 1-47.993566 47.993566H199.752261a47.993566 47.993566 0 0 1-31.99571-82.228976l42.874252-43.194209L13.921174 81.214392A47.993566 47.993566 0 0 1 81.080171 12.743572L279.005636 207.2135l47.033695-46.39378a47.641613 47.641613 0 0 1 52.089017-9.91867z m288.44133 251.390298a47.993566 47.993566 0 0 1-47.673608-47.993566V198.606654a47.993566 47.993566 0 0 1 81.589062-34.23541l43.450175 43.194209L941.252854 12.743572a47.96157 47.96157 0 0 1 67.127 68.47082L812.374132 274.980415l45.753866 43.834124a47.993566 47.993566 0 0 1-33.595496 83.444813h-157.962824z m342.130134 538.263839a47.673609 47.673609 0 0 1 0.319957 69.430692 47.96157 47.96157 0 0 1-67.766915 0l-196.037719-196.069715-47.321656 45.753866a47.321656 47.321656 0 0 1-31.995711 13.438199c-6.559121 0-13.086246-1.279828-19.16543-3.839485a47.993566 47.993566 0 0 1-28.79614-44.474038v-155.435162a48.313523 48.313523 0 0 1 47.993566-47.673609h158.28278a47.993566 47.993566 0 0 1 44.154081 30.075968 48.953437 48.953437 0 0 1-11.198499 52.472966l-43.194209 41.562428 194.725895 194.75789zM358.354998 621.365978l-0.319957 0.959871a47.96157 47.96157 0 0 1 47.641613 48.313523v156.075077a47.673609 47.673609 0 0 1-47.993565 47.353651c-12.702297 0-24.892663-5.055322-33.883458-14.078112l-43.482171-43.514167-198.245422 191.910272c-18.909465 18.557512-49.209403 18.557512-68.118868 0a48.63348 48.63348 0 0 1 0-68.150863l197.925465-191.878277-45.72187-45.753866a47.993566 47.993566 0 0 1 34.555367-81.237109h157.642866z" fill="#dbdbdb" p-id="6197"></path></svg>