<?xml version="1.0" standalone="no"?><!DOCTYPE svg PUBLIC "-//W3C//DTD SVG 1.1//EN" "http://www.w3.org/Graphics/SVG/1.1/DTD/svg11.dtd"><svg t="1762960427316" class="icon" viewBox="0 0 1088 1024" version="1.1" xmlns="http://www.w3.org/2000/svg" p-id="5955" xmlns:xlink="http://www.w3.org/1999/xlink" width="212.5" height="200"><path d="M532.8 182.144c224.64 0 414.976 198.784 481.088 276.864a47.808 47.808 0 0 1 0 61.952c-66.112 78.016-256.512 276.8-481.088 276.8-224.64 0-415.104-198.848-481.216-276.864a47.936 47.936 0 0 1 0-61.824C117.76 380.992 308.16 182.144 532.8 182.144z m0 123.136a184.96 184.96 0 0 0-181.12 220.8 184.32 184.32 0 0 0 181.12 148.544 184.96 184.96 0 0 0 181.12-220.864 184.32 184.32 0 0 0-181.12-148.48z" fill="#ffffff" p-id="5956"></path><path d="M532.8 489.984m-64.64 0a64.64 64.64 0 1 0 129.28 0 64.64 64.64 0 1 0-129.28 0Z" fill="#ffffff" p-id="5957"></path></svg>