<?xml version="1.0" encoding="utf-8"?><svg xmlns="http://www.w3.org/2000/svg"><symbol viewBox="0 0 24 24" id="clip"><path d="M7.93517 13.7796L15.1617 6.55304C16.0392 5.67631 17.4657 5.67631 18.3432 6.55304C19.2206 7.43052 19.2206 8.85774 18.3432 9.73522L8.40091 19.5477C6.9362 21.0124 4.56325 21.0124 3.09854 19.5477C1.63382 18.0837 1.63382 15.7093 3.09854 14.2453L12.9335 4.53784C14.984 2.48739 18.3094 2.48739 20.3569 4.53784C22.4088 6.58904 22.4088 9.91146 20.3584 11.9619L13.239 19.082"/></symbol><symbol viewBox="0 0 24 24" id="clipboard"><polyline points="15 3 19 3 19 21 5 21 5 3 5 3 9 3"/><path d="M14,4 L10,4 C9.44771525,4 9,3.55228475 9,3 C9,2.44771525 9.44771525,2 10,2 L14,2 C14.5522847,2 15,2.44771525 15,3 C15,3.55228475 14.5522847,4 14,4 Z"/></symbol><symbol viewBox="0 0 24 24" id="file"><path stroke-linecap="round" d="M13 3v6h6"/><path d="M13 3l6 6v12H5V3z"/></symbol></svg>